# xmcd CD database file generated by OrangeCD 4.2
#
# Track frame offsets:
#	150
#	13912
#	24977
#	39425
#	51607
#	63132
#	74230
#	84842
#	102822
#	116450
#	126062
#	137187
#	151312
#	163737
#	175270
#	185390
#
# Disc length: 2617 seconds
#
# Revision: 0
# Processed by: cddbd v1.4PL0 Copyright (c) Steve Scherf et al.
# Submitted via: OrangeCD 4.2
#
DISCID=d70a3710
DTITLE=Jim Croce - The Jim Croce Collection
DYEAR=1999
DGENRE=Country
TTITLE0=You dont mess around with Jim
TTITLE1=Time in a bottle
TTITLE2=I got a name
TTITLE3=Dreaming again
TTITLE4=Workin at the car wash blues
TTITLE5=Box #10
TTITLE6=A long time ago
TTITLE7=Mississippi lady
TTITLE8=Bad bad leroy brown
TTITLE9=Photographs and memories
TTITLE10=Thursday
TTITLE11=New Yorks not my home
TTITLE12=Rapid Roy
TTITLE13=Ill have to say I love you in a song
TTITLE14=Alabama rain
TTITLE15=Ol man river
EXTD=
EXTT0=
EXTT1=
EXTT2=
EXTT3=
EXTT4=
EXTT5=
EXTT6=
EXTT7=
EXTT8=
EXTT9=
EXTT10=
EXTT11=
EXTT12=
EXTT13=
EXTT14=
EXTT15=
PLAYORDER=
